STARTFONT 2.1
FONT -Monotype-Arial-Regular-I-Normal--33-240-100-100-P-178-iso8859-5
SIZE 24 100 100
FONTBOUNDINGBOX 39 36 -4 -7

STARTPROPERTIES 24
FOUNDRY "Monotype"
FAMILY_NAME "Arial"
WEIGHT_NAME "Regular"
SLANT "I"
SETWIDTH_NAME "Normal"
ADD_STYLE_NAME ""
PIXEL_SIZE 33
POINT_SIZE 240
RESOLUTION_X 100
RESOLUTION_Y 100
SPACING "P"
AVERAGE_WIDTH 178
CHARSET_REGISTRY "iso8859"
CHARSET_ENCODING "5"
FACE_NAME "Arial Inclined ISO Latin Cyrillic"
_DEC_DEVICE_FONTNAMES "PS=arial-in-latcyrillic"
COPYRIGHT "Copyright (c) 1993 Monotype Typography Ltd."
CAP_HEIGHT 25
X_HEIGHT 18
WEIGHT 10
QUAD_WIDTH 21
DEFAULT_CHAR 160
FONT_DESCENT 7
FONT_ASCENT 29
ENDPROPERTIES

CHARS 191

STARTCHAR space
ENCODING 32
SWIDTH 278 0
DWIDTH 9 0
BBX 0 0 0 0
BITMAP
ENDCHAR

STARTCHAR exclam
ENCODING 33
SWIDTH 278 0
DWIDTH 9 0
BBX 8 24 1 0
BITMAP
07
07
0F
0F
0F
0E
0E
0E
1E
1C
1C
1C
18
18
18
38
30
30
00
00
00
70
70
F0
ENDCHAR

STARTCHAR quotedbl
ENCODING 34
SWIDTH 355 0
DWIDTH 12 0
BBX 9 9 4 15
BITMAP
7380
F380
F380
E780
E700
E700
C700
C600
C600
ENDCHAR

STARTCHAR numbersign
ENCODING 35
SWIDTH 556 0
DWIDTH 18 0
BBX 18 24 1 0
BITMAP
038300
030300
030700
030700
070600
070600
060600
FFFFC0
FFFFC0
0E0C00
0E0C00
0C1C00
0C1C00
0C1800
1C1800
FFFFC0
FFFFC0
183800
383000
383000
383000
307000
307000
706000
ENDCHAR

STARTCHAR dollar
ENCODING 36
SWIDTH 556 0
DWIDTH 18 0
BBX 17 29 1 -3
BITMAP
001800
001800
01FC00
07FF00
0F3700
0E3380
1C3380
1C2180
1C2000
1C6000
0E6000
0F6000
07C000
03F000
00FC00
00DE00
00CE00
008700
018700
E18700
718700
710E00
790E00
3F3C00
1FF800
07E000
020000
020000
060000
ENDCHAR

STARTCHAR percent
ENCODING 37
SWIDTH 889 0
DWIDTH 29 0
BBX 25 24 3 0
BITMAP
1F800600
3FC00C00
78E01C00
70E03800
E0E07000
E0E0E000
C0E0C000
C1C1C000
C1C38000
E3870000
7F0E0000
3E0C0000
00183E00
00387F00
0070E380
00E0C380
01C1C380
0181C380
03818380
07018300
0E018700
1C01CE00
3800FE00
70007800
ENDCHAR

STARTCHAR ampersand
ENCODING 38
SWIDTH 667 0
DWIDTH 22 0
BBX 19 25 2 -1
BITMAP
00FC00
01FE00
03CF00
078700
070700
070700
070F00
071E00
03FC00
03F800
07E000
0FC000
3EE000
3CF000
707080
F079E0
E039C0
E01FC0
E01F80
E00F00
701F80
783F80
3FFBE0
1FF1C0
078080
ENDCHAR

STARTCHAR quoteright
ENCODING 39
SWIDTH 222 0
DWIDTH 7 0
BBX 5 8 3 16
BITMAP
38
38
78
18
10
30
60
C0
ENDCHAR

STARTCHAR parenleft
ENCODING 40
SWIDTH 333 0
DWIDTH 11 0
BBX 11 31 2 -7
BITMAP
00E0
01C0
0180
0300
0700
0E00
0E00
1C00
1C00
3800
3800
7000
7000
7000
7000
E000
E000
E000
E000
E000
E000
E000
E000
E000
6000
6000
7000
7000
3000
3000
3800
ENDCHAR

STARTCHAR parenright
ENCODING 41
SWIDTH 333 0
DWIDTH 11 0
BBX 11 31 -2 -7
BITMAP
0380
0180
0180
01C0
01C0
00C0
00E0
00E0
00E0
00E0
00E0
00E0
00E0
00E0
00E0
00E0
00E0
01C0
01C0
01C0
0380
0380
0300
0700
0600
0E00
1C00
1800
3800
7000
E000
ENDCHAR

STARTCHAR asterisk
ENCODING 42
SWIDTH 389 0
DWIDTH 13 0
BBX 11 10 3 14
BITMAP
0600
0600
0600
76E0
FFE0
1F80
0F00
1B80
39C0
1180
ENDCHAR

STARTCHAR plus
ENCODING 43
SWIDTH 584 0
DWIDTH 19 0
BBX 15 15 3 4
BITMAP
0380
0380
0380
0380
0380
0380
FFFE
FFFE
FFFE
0380
0380
0380
0380
0380
0380
ENDCHAR

STARTCHAR comma
ENCODING 44
SWIDTH 278 0
DWIDTH 9 0
BBX 5 8 0 -5
BITMAP
38
78
78
10
10
30
60
C0
ENDCHAR

STARTCHAR minus
ENCODING 45
SWIDTH 584 0
DWIDTH 19 0
BBX 15 3 3 10
BITMAP
FFFE
FFFE
FFFE
ENDCHAR

STARTCHAR period
ENCODING 46
SWIDTH 278 0
DWIDTH 9 0
BBX 4 3 1 0
BITMAP
70
F0
F0
ENDCHAR

STARTCHAR slash
ENCODING 47
SWIDTH 278 0
DWIDTH 9 0
BBX 15 25 -2 -1
BITMAP
000E
000C
001C
0018
0038
0030
0070
0060
00E0
00C0
01C0
0380
0300
0700
0600
0E00
0C00
1C00
1800
3800
3000
7000
6000
E000
C000
ENDCHAR

STARTCHAR zero
ENCODING 48
SWIDTH 556 0
DWIDTH 18 0
BBX 17 24 1 0
BITMAP
01F800
03FE00
078F00
0E0700
1C0300
1C0380
380380
380380
780380
700380
700380
700380
F00700
E00700
E00700
E00700
E00E00
E00E00
E01C00
601C00
703800
38F000
3FE000
0FC000
ENDCHAR

STARTCHAR one
ENCODING 49
SWIDTH 556 0
DWIDTH 18 0
BBX 11 24 4 0
BITMAP
0060
00E0
01E0
03E0
07C0
1FC0
7DC0
79C0
C380
0380
0380
0380
0380
0700
0700
0700
0700
0700
0E00
0E00
0E00
0E00
0C00
1C00
ENDCHAR

STARTCHAR two
ENCODING 50
SWIDTH 556 0
DWIDTH 18 0
BBX 17 24 1 0
BITMAP
01F800
07FE00
0F8F00
0E0700
1C0380
1C0380
1C0380
000380
000780
000700
000F00
001E00
003C00
00F800
01E000
03C000
078000
0F0000
1E0000
3C0000
700000
7FFE00
7FFE00
FFFE00
ENDCHAR

STARTCHAR three
ENCODING 51
SWIDTH 556 0
DWIDTH 18 0
BBX 16 24 2 0
BITMAP
03F8
0FFC
1F1E
1C0F
3807
3807
0007
0007
000E
003C
01F0
01F8
007C
001C
000E
000E
000E
E00E
E00E
E01C
F03C
78F8
3FF0
0FC0
ENDCHAR

STARTCHAR four
ENCODING 52
SWIDTH 556 0
DWIDTH 18 0
BBX 16 24 1 0
BITMAP
0007
000F
000F
001E
003E
0076
00EE
01CE
039C
071C
0E1C
1E1C
1C1C
3838
6038
FFFF
FFFF
FFFF
0070
0070
0070
0070
00E0
00E0
ENDCHAR

STARTCHAR five
ENCODING 53
SWIDTH 556 0
DWIDTH 18 0
BBX 17 24 1 0
BITMAP
07FF80
07FF80
0FFF00
0E0000
0E0000
0C0000
1C0000
1CF000
1BFC00
3FFE00
3C1E00
380F00
000700
000700
000700
000700
000700
E00E00
E00E00
F01E00
703C00
7CF800
3FF000
0FC000
ENDCHAR

STARTCHAR six
ENCODING 54
SWIDTH 556 0
DWIDTH 18 0
BBX 16 24 2 0
BITMAP
01F8
07FC
0F9E
0E0F
1C07
3C07
3800
3800
73F0
77F8
7E3C
F81C
F00E
F00E
E00E
E00E
E00E
E00E
E01C
701C
7038
3CF0
1FE0
0FC0
ENDCHAR

STARTCHAR seven
ENCODING 55
SWIDTH 556 0
DWIDTH 18 0
BBX 16 24 3 0
BITMAP
7FFF
7FFF
FFEF
001E
001C
0038
0070
00E0
01E0
01C0
0380
0380
0700
0700
0E00
0E00
1C00
1C00
1C00
3800
3800
3800
7800
7000
ENDCHAR

STARTCHAR eight
ENCODING 56
SWIDTH 556 0
DWIDTH 18 0
BBX 16 24 2 0
BITMAP
03F8
0FFC
1F1E
1C0F
3C07
3807
3807
3807
1C0E
0E1C
07F0
1FF8
3C3C
781C
700E
E00E
E00E
E00E
E01E
E01C
703C
7878
3FF0
0FC0
ENDCHAR

STARTCHAR nine
ENCODING 57
SWIDTH 556 0
DWIDTH 18 0
BBX 16 24 2 0
BITMAP
03F0
0FFC
1F3C
1C0E
3806
3807
7007
7007
7007
7007
700F
780F
381F
3C7E
1FF6
0FCE
001C
001C
E03C
E038
F070
79E0
3FC0
1F80
ENDCHAR

STARTCHAR colon
ENCODING 58
SWIDTH 278 0
DWIDTH 9 0
BBX 7 17 1 0
BITMAP
0E
1E
1E
00
00
00
00
00
00
00
00
00
00
00
70
70
F0
ENDCHAR

STARTCHAR semicolon
ENCODING 59
SWIDTH 278 0
DWIDTH 9 0
BBX 8 22 0 -5
BITMAP
07
0F
0F
00
00
00
00
00
00
00
00
00
00
00
38
38
78
10
10
30
60
C0
ENDCHAR

STARTCHAR less
ENCODING 60
SWIDTH 584 0
DWIDTH 19 0
BBX 15 16 3 4
BITMAP
0002
000E
003E
00FE
07F0
1FC0
FE00
F800
E000
FC00
7F00
0FE0
03F8
007E
001E
0006
ENDCHAR

STARTCHAR equal
ENCODING 61
SWIDTH 584 0
DWIDTH 19 0
BBX 15 10 3 7
BITMAP
FFFE
FFFE
FFFE
0000
0000
0000
0000
FFFE
FFFE
FFFE
ENDCHAR

STARTCHAR greater
ENCODING 62
SWIDTH 584 0
DWIDTH 19 0
BBX 15 16 3 4
BITMAP
8000
C000
F800
FE00
1F80
07F0
00FC
002E
001E
007E
01F8
0FE0
3F80
FC00
F000
8000
ENDCHAR

STARTCHAR question
ENCODING 63
SWIDTH 556 0
DWIDTH 18 0
BBX 14 24 4 0
BITMAP
0FE0
3FF0
7878
703C
E01C
E01C
E01C
003C
0038
0070
00F0
03C0
0780
0F00
0E00
1C00
1C00
3800
0000
0000
0000
7800
7800
7000
ENDCHAR

STARTCHAR at
ENCODING 64
SWIDTH 1015 0
DWIDTH 33 0
BBX 30 31 2 -7
BITMAP
001FF000
00FFFE00
01F83F00
07C00780
0F0001C0
0E0000E0
1C000070
381F9C30
303FDC38
7078EC38
60F07C18
60E03818
E1C03818
C1C03818
C3803818
C3803838
C3803038
C3807070
C3807070
E380F0E0
E1C1F1C0
61E37F80
70FE7F00
707C3C00
3800003C
1C000078
0F0000F0
078003E0
03F83FC0
00FFFF00
001FF800
ENDCHAR

STARTCHAR A
ENCODING 65
SWIDTH 667 0
DWIDTH 22 0
BBX 21 24 -1 0
BITMAP
000780
000F80
000F80
001D80
001DC0
0039C0
0039C0
0071C0
00F1C0
00E1C0
01E0E0
01C0E0
03C0E0
0380E0
0700E0
0FFFE0
0FFFF0
1E0070
1C0070
3C0070
380070
780070
F00078
E00038
ENDCHAR

STARTCHAR B
ENCODING 66
SWIDTH 667 0
DWIDTH 22 0
BBX 20 24 1 0
BITMAP
07FF00
0FFFC0
0FFFE0
0E00F0
0E0070
0E0070
1E0070
1C0070
1C00E0
1C01E0
1FFF80
3FFF00
3FFFC0
3803E0
3800E0
7000E0
7000E0
7000E0
7001E0
7001C0
E007C0
FFFF80
FFFE00
FFF800
ENDCHAR

STARTCHAR C
ENCODING 67
SWIDTH 722 0
DWIDTH 24 0
BBX 21 24 3 0
BITMAP
007E00
01FF80
07FFE0
0F81F0
1E0070
3C0078
380038
780030
700000
700000
F00000
E00000
E00000
E00000
E00000
E00040
E000F0
F000E0
7001E0
7803C0
3E0780
1FFF00
0FFC00
01F000
ENDCHAR

STARTCHAR D
ENCODING 68
SWIDTH 722 0
DWIDTH 24 0
BBX 22 24 1 0
BITMAP
07FF00
07FFC0
07FFF0
0E00F0
0E0078
0E0038
0E001C
1E001C
1C001C
1C001C
1C001C
1C001C
3C001C
38003C
380038
380038
380078
780070
7000E0
7003E0
7007C0
7FFF80
FFFE00
FFF000
ENDCHAR

STARTCHAR E
ENCODING 69
SWIDTH 667 0
DWIDTH 22 0
BBX 22 24 1 0
BITMAP
07FFFC
07FFFC
0FFFF8
0E0000
0E0000
0E0000
1E0000
1C0000
1C0000
1C0000
1FFFE0
3FFFE0
3FFFE0
380000
380000
380000
780000
700000
700000
700000
700000
FFFFC0
FFFFC0
FFFFC0
ENDCHAR

STARTCHAR F
ENCODING 70
SWIDTH 611 0
DWIDTH 20 0
BBX 20 24 1 0
BITMAP
07FFF0
0FFFF0
0FFFF0
0E0000
0E0000
0E0000
1E0000
1C0000
1C0000
1C0000
1FFFC0
3FFFC0
3FFFC0
380000
380000
380000
700000
700000
700000
700000
F00000
E00000
E00000
E00000
ENDCHAR

STARTCHAR G
ENCODING 71
SWIDTH 778 0
DWIDTH 26 0
BBX 22 24 3 0
BITMAP
003F00
01FFC0
07FFE0
0F80F0
1F0078
1C003C
3C001C
38001C
700000
700000
F00000
E00000
E01FF8
E03FF8
E03FF8
E00070
E00070
F00070
700070
7800E0
3C03E0
1FFFC0
0FFF00
01F800
ENDCHAR

STARTCHAR H
ENCODING 72
SWIDTH 722 0
DWIDTH 24 0
BBX 23 24 1 0
BITMAP
07000E
07000E
0E000E
0E001E
0E001C
0E001C
1E001C
1C001C
1C003C
1C0038
1FFFF8
3FFFF8
3FFFB8
380078
380070
380070
780070
700070
7000F0
7000E0
7000E0
F000E0
E000E0
E001E0
ENDCHAR

STARTCHAR I
ENCODING 73
SWIDTH 278 0
DWIDTH 9 0
BBX 8 24 1 0
BITMAP
07
07
07
0F
0E
0E
0E
0E
1E
1C
1C
1C
1C
3C
38
38
38
38
78
70
70
70
70
E0
ENDCHAR

STARTCHAR J
ENCODING 74
SWIDTH 500 0
DWIDTH 17 0
BBX 17 24 0 0
BITMAP
000780
000700
000700
000700
000700
000F00
000E00
000E00
000E00
001E00
001C00
001C00
001C00
001C00
003C00
003800
203800
E03800
E03800
E07000
F0F000
7FE000
3FC000
0F0000
ENDCHAR

STARTCHAR K
ENCODING 75
SWIDTH 667 0
DWIDTH 22 0
BBX 23 24 1 0
BITMAP
07003E
0F0078
0E00F0
0E01E0
0E07C0
0E0F80
1E1F00
1C3C00
1C7800
1CF000
1DF000
3DF800
3FB800
3F3C00
3C1E00
380E00
780F00
700700
700780
700380
F003C0
E001E0
E000E0
E000F0
ENDCHAR

STARTCHAR L
ENCODING 76
SWIDTH 556 0
DWIDTH 18 0
BBX 16 24 1 0
BITMAP
0700
0F00
0E00
0E00
0E00
0E00
1E00
1C00
1C00
1C00
1C00
3C00
3800
3800
3800
7800
7000
7000
7000
7000
F000
FFFF
FFFE
FFFE
ENDCHAR

STARTCHAR M
ENCODING 77
SWIDTH 833 0
DWIDTH 27 0
BBX 27 24 1 0
BITMAP
078001E0
0F8003E0
0F8003E0
0F800740
0E8006C0
0E800EC0
1DC00DC0
1DC01DC0
1DC03B80
1DC03B80
1DC07380
38C07380
38E0E780
38E0E700
38E1C700
78E38700
70E38700
70670F00
70670E00
70760E00
F0760E00
E07C0E00
E0781C00
E0381C00
ENDCHAR

STARTCHAR N
ENCODING 78
SWIDTH 722 0
DWIDTH 24 0
BBX 23 24 1 0
BITMAP
07000E
07800E
0F800E
0F800E
0EC01C
0EC01C
0EE01C
1CE01C
1C703C
1C7038
1C3838
1C3838
383C38
381C78
381C70
380E70
780E70
700670
700760
700760
7003E0
E003E0
E001E0
E001C0
ENDCHAR

STARTCHAR O
ENCODING 79
SWIDTH 778 0
DWIDTH 26 0
BBX 22 24 3 0
BITMAP
007E00
01FFC0
07FFE0
0F81F0
1E0078
3C0038
38003C
78001C
70001C
F0001C
E0001C
E0001C
E0001C
E0001C
E0003C
E00038
F00078
700070
7800F0
3801E0
3E07C0
1FFF80
07FE00
01F000
ENDCHAR

STARTCHAR P
ENCODING 80
SWIDTH 667 0
DWIDTH 22 0
BBX 22 24 0 0
BITMAP
07FFC0
07FFF0
07FFF8
07003C
0F001C
0E001C
0E001C
0E001C
0E003C
1E0078
1C00F0
1FFFF0
1FFFC0
1FFE00
3C0000
380000
380000
380000
380000
780000
700000
700000
700000
F00000
ENDCHAR

STARTCHAR Q
ENCODING 81
SWIDTH 778 0
DWIDTH 26 0
BBX 22 26 3 -2
BITMAP
007E00
01FFC0
07FFE0
0F81F0
1E0078
3C0038
38003C
78001C
70001C
F0001C
E0001C
E0001C
E0001C
E0001C
E0003C
E00038
F00078
703070
783CF0
381EE0
3E07C0
1FFF80
07FFC0
01F1E0
0000F0
000020
ENDCHAR

STARTCHAR R
ENCODING 82
SWIDTH 722 0
DWIDTH 24 0
BBX 23 24 1 0
BITMAP
07FFE0
07FFF8
07FFFC
07001E
07000E
0E000E
0E000E
0E000E
0E001E
1E003C
1E007C
1FFFF8
1FFFE0
1FFF00
3C0700
380380
3801C0
3801C0
3800E0
7800E0
7000F0
700070
700078
F00038
ENDCHAR

STARTCHAR S
ENCODING 83
SWIDTH 667 0
DWIDTH 22 0
BBX 20 24 1 0
BITMAP
00FC00
03FF80
07FFC0
0F01E0
1E00F0
1C0070
1C0070
1C0000
1F0000
0F8000
07E000
01FC00
007E00
001F80
000780
0003C0
E001C0
E001C0
F001C0
7003C0
7C0780
3FFF00
1FFE00
03F000
ENDCHAR

STARTCHAR T
ENCODING 84
SWIDTH 611 0
DWIDTH 20 0
BBX 20 24 3 0
BITMAP
7FFFF0
7FFFE0
FFFFE0
00E000
00E000
00E000
01E000
01C000
01C000
01C000
01C000
038000
038000
038000
038000
078000
070000
070000
070000
070000
0F0000
0E0000
0E0000
0E0000
ENDCHAR

STARTCHAR U
ENCODING 85
SWIDTH 722 0
DWIDTH 24 0
BBX 22 24 3 0
BITMAP
1E003C
1C0038
1C0038
1C0038
3C0038
380078
380070
380070
380070
780070
7000E0
7000E0
7000E0
7000E0
E001E0
E001C0
E001C0
E003C0
E00380
F00780
781F00
3FFE00
1FF800
03E000
ENDCHAR

STARTCHAR V
ENCODING 86
SWIDTH 667 0
DWIDTH 22 0
BBX 21 24 3 0
BITMAP
F00038
700078
700070
7000F0
7000E0
7801C0
3801C0
380380
380380
380700
3C0F00
1C0E00
1C1E00
1C1C00
1C3C00
1E3800
0E7000
0E7000
0EE000
0EE000
0FC000
07C000
078000
078000
ENDCHAR

STARTCHAR W
ENCODING 87
SWIDTH 944 0
DWIDTH 31 0
BBX 31 24 3 0
BITMAP
F003C00E
7003C01E
7007C01C
7007C03C
700FC038
700EC078
701DC070
703DC0F0
7039C0E0
7079C1E0
7071C1C0
70F1C3C0
70E1C380
71E1C780
71C1E700
73C1EF00
7380EE00
7780EE00
3700EC00
3E00EC00
3E00F800
3C00F800
3C00F000
3800E000
ENDCHAR

STARTCHAR X
ENCODING 88
SWIDTH 667 0
DWIDTH 22 0
BBX 27 24 -2 0
BITMAP
078003E0
038007C0
03C00F80
01C00F00
01E01E00
00F03C00
00707800
0078F000
0039E000
003DC000
001F8000
000E0000
001F0000
003F0000
007B8000
00F38000
01E3C000
03E1C000
07C0E000
0F80E000
0F007000
1E007800
3C003800
F8003C00
ENDCHAR

STARTCHAR Y
ENCODING 89
SWIDTH 667 0
DWIDTH 22 0
BBX 22 24 3 0
BITMAP
F0003C
700078
7800F0
3801E0
3C01E0
1C03C0
1E0780
0E0F00
0F0F00
071E00
07BC00
03F800
03F000
01F000
00E000
01E000
01C000
01C000
01C000
01C000
038000
038000
038000
038000
ENDCHAR

STARTCHAR Z
ENCODING 90
SWIDTH 611 0
DWIDTH 20 0
BBX 20 24 0 0
BITMAP
0FFFF0
0FFFF0
1FFEF0
0001E0
0003C0
0003C0
000780
000F00
001E00
003C00
003800
007800
00F000
01E000
03C000
078000
0F0000
0F0000
1E0000
3C0000
700000
FFFFC0
FFFFC0
FFFFC0
ENDCHAR

STARTCHAR bracketleft
ENCODING 91
SWIDTH 278 0
DWIDTH 9 0
BBX 13 30 -1 -6
BITMAP
03F8
03F8
0380
0380
0380
0700
0700
0700
0700
0700
0E00
0E00
0E00
0E00
0E00
1C00
1C00
1C00
1C00
1C00
3800
3800
3800
3800
3000
7000
7000
7000
7E00
FE00
ENDCHAR

STARTCHAR backslash
ENCODING 92
SWIDTH 278 0
DWIDTH 9 0
BBX 5 25 3 -1
BITMAP
C0
C0
C0
C0
E0
E0
E0
60
60
60
60
60
60
70
70
70
30
30
30
30
30
30
38
38
38
ENDCHAR

STARTCHAR bracketright
ENCODING 93
SWIDTH 278 0
DWIDTH 9 0
BBX 13 30 -3 -6
BITMAP
03F8
03F0
0070
0070
0070
0070
00E0
00E0
00E0
00E0
00E0
01C0
01C0
01C0
01C0
01C0
0380
0380
0380
0380
0300
0700
0700
0700
0700
0600
0E00
0E00
FE00
FE00
ENDCHAR

STARTCHAR asciicircum
ENCODING 94
SWIDTH 469 0
DWIDTH 15 0
BBX 13 13 2 11
BITMAP
0700
0700
0F80
0D80
1DC0
1DC0
18C0
38E0
3060
7070
7070
E038
E038
ENDCHAR

STARTCHAR underscore
ENCODING 95
SWIDTH 556 0
DWIDTH 18 0
BBX 19 2 -2 -7
BITMAP
FFFFE0
FFFFE0
ENDCHAR

STARTCHAR quoteleft
ENCODING 96
SWIDTH 222 0
DWIDTH 7 0
BBX 5 8 4 16
BITMAP
18
30
60
40
C0
F0
E0
E0
ENDCHAR

STARTCHAR a
ENCODING 97
SWIDTH 556 0
DWIDTH 18 0
BBX 16 17 1 0
BITMAP
03F8
0FFE
1E0F
3C07
3807
0007
000F
1FFE
3FF6
780E
F00E
E01E
E01C
E03C
70FC
7FDC
1F1C
ENDCHAR

STARTCHAR b
ENCODING 98
SWIDTH 556 0
DWIDTH 18 0
BBX 17 24 0 0
BITMAP
070000
070000
070000
070000
0E0000
0E0000
0E0000
0EFC00
0EFE00
1F8F00
1E0700
1E0380
1C0380
1C0380
380380
380380
380380
380700
780700
780E00
7C1E00
6E3C00
67F800
E3E000
ENDCHAR

STARTCHAR c
ENCODING 99
SWIDTH 500 0
DWIDTH 17 0
BBX 15 17 1 0
BITMAP
07F0
0FFC
1E1C
380E
780E
7000
7000
E000
E000
E000
E000
E01C
E038
7078
78F0
3FE0
1F80
ENDCHAR

STARTCHAR d
ENCODING 100
SWIDTH 556 0
DWIDTH 18 0
BBX 18 24 1 0
BITMAP
0001C0
0001C0
0001C0
000380
000380
000380
000380
07E380
0FF700
1E3B00
3C1F00
780F00
700F00
700E00
E00E00
E00E00
E00E00
E00C00
E01C00
E03C00
703C00
78EC00
3FD800
1F3800
ENDCHAR

STARTCHAR e
ENCODING 101
SWIDTH 556 0
DWIDTH 18 0
BBX 16 17 1 0
BITMAP
03F0
0FFC
1E1E
3C0E
7807
7007
7007
FFFF
FFFF
E000
E000
E00E
E01C
703C
78F8
3FF0
0FC0
ENDCHAR

STARTCHAR f
ENCODING 102
SWIDTH 278 0
DWIDTH 9 0
BBX 12 24 1 0
BITMAP
03E0
07F0
07E0
0E00
0E00
0E00
1C00
7FC0
FF80
1C00
1C00
3800
3800
3800
3800
3000
7000
7000
7000
7000
6000
E000
E000
E000
ENDCHAR

STARTCHAR g
ENCODING 103
SWIDTH 556 0
DWIDTH 18 0
BBX 18 24 0 -7
BITMAP
01F1C0
07FDC0
0F1E80
1E0780
3C0780
380380
380300
700300
700300
700700
700700
700E00
700E00
381E00
3C7E00
1FEE00
0FCC00
001C00
001C00
E01800
E03800
F0F000
7FF000
1FC000
ENDCHAR

STARTCHAR h
ENCODING 104
SWIDTH 556 0
DWIDTH 18 0
BBX 16 24 1 0
BITMAP
0F00
0E00
0E00
0E00
0E00
1C00
1C00
1CFC
1DFE
1D8F
3E07
3C07
3807
3807
380E
700E
700E
700E
700E
601C
E01C
E01C
E01C
E038
ENDCHAR

STARTCHAR i
ENCODING 105
SWIDTH 222 0
DWIDTH 7 0
BBX 8 24 0 0
BITMAP
07
07
07
00
00
00
00
0E
0E
1C
1C
1C
1C
1C
38
38
38
38
30
70
70
70
70
E0
ENDCHAR

STARTCHAR j
ENCODING 106
SWIDTH 222 0
DWIDTH 7 0
BBX 12 31 -4 -7
BITMAP
0070
0070
0070
0000
0000
0000
0000
00E0
00E0
01C0
01C0
01C0
01C0
01C0
0380
0380
0380
0380
0380
0700
0700
0700
0700
0600
0E00
0E00
0E00
1C00
FC00
F800
F000
ENDCHAR

STARTCHAR k
ENCODING 107
SWIDTH 500 0
DWIDTH 17 0
BBX 17 24 1 0
BITMAP
0E0000
0E0000
0E0000
0E0000
0C0000
1C0000
1C0000
1C0F80
1C1E00
383C00
387800
38F000
39C000
3B8000
77C000
7EC000
7CE000
78E000
70F000
E07000
E07000
E03800
E03800
C03C00
ENDCHAR

STARTCHAR l
ENCODING 108
SWIDTH 222 0
DWIDTH 7 0
BBX 8 24 0 0
BITMAP
07
07
07
07
0E
0E
0E
0E
0E
1C
1C
1C
1C
1C
38
38
38
38
30
70
70
70
70
E0
ENDCHAR

STARTCHAR m
ENCODING 109
SWIDTH 833 0
DWIDTH 27 0
BBX 26 17 0 0
BITMAP
0E7C1F00
0CFE7F80
1F8F63C0
1F07C1C0
1E0781C0
1C0701C0
3C0F0180
380E0380
380E0380
380E0380
380E0380
701C0300
701C0700
701C0700
701C0700
60180700
E0380E00
ENDCHAR

STARTCHAR n
ENCODING 110
SWIDTH 556 0
DWIDTH 18 0
BBX 16 17 1 0
BITMAP
1C7C
1DFE
1B8F
3E07
3C07
3807
3807
380E
700E
700E
700E
700C
601C
E01C
E01C
E01C
E038
ENDCHAR

STARTCHAR o
ENCODING 111
SWIDTH 556 0
DWIDTH 18 0
BBX 16 17 1 0
BITMAP
03F8
0FFC
1E1E
3C0E
7807
7007
7007
E007
E007
E007
E00E
E00E
E01E
703C
7878
3FF0
0FC0
ENDCHAR

STARTCHAR p
ENCODING 112
SWIDTH 556 0
DWIDTH 18 0
BBX 18 23 -1 -6
BITMAP
073E00
06FF00
0EC780
0F0380
0F01C0
0E01C0
0E01C0
1C01C0
1C01C0
1C01C0
1C0380
3C0380
3C0700
3E0F00
3B1E00
33FC00
71F000
700000
700000
700000
600000
E00000
E00000
ENDCHAR

STARTCHAR q
ENCODING 113
SWIDTH 556 0
DWIDTH 18 0
BBX 17 23 1 -6
BITMAP
07E380
0FF300
1E3B00
3C1F00
780F00
700E00
700E00
E00E00
E00E00
E00E00
E01C00
E01C00
E03C00
703C00
78FC00
3FD800
1F3800
003800
003800
003000
007000
007000
007000
ENDCHAR

STARTCHAR r
ENCODING 114
SWIDTH 333 0
DWIDTH 11 0
BBX 13 17 0 0
BITMAP
0E78
0CF8
1DF0
1D00
1E00
1C00
1C00
3C00
3800
3800
3800
3000
7000
7000
7000
7000
E000
ENDCHAR

STARTCHAR s
ENCODING 115
SWIDTH 500 0
DWIDTH 17 0
BBX 15 17 0 0
BITMAP
07F0
0FFC
1C1E
380E
380E
3C00
1F00
0FC0
07F0
00F8
003C
E01C
E01C
F01C
7878
3FF0
1FE0
ENDCHAR

STARTCHAR t
ENCODING 116
SWIDTH 278 0
DWIDTH 9 0
BBX 9 23 1 0
BITMAP
0200
0E00
0E00
1C00
1C00
1C00
FF80
FF00
3800
3800
3800
3800
3000
7000
7000
7000
7000
E000
E000
E000
E000
FC00
7C00
ENDCHAR

STARTCHAR u
ENCODING 117
SWIDTH 556 0
DWIDTH 18 0
BBX 16 17 1 0
BITMAP
1C07
3807
3807
3807
3806
700E
700E
700E
700E
701C
E01C
E01C
E03C
E07C
F1D8
7FB8
3E38
ENDCHAR

STARTCHAR v
ENCODING 118
SWIDTH 500 0
DWIDTH 17 0
BBX 16 17 2 0
BITMAP
E007
E00E
E01C
601C
7038
7038
7070
7070
70E0
31C0
39C0
3B80
3B80
3B00
3E00
1E00
1C00
ENDCHAR

STARTCHAR w
ENCODING 119
SWIDTH 722 0
DWIDTH 24 0
BBX 23 17 2 0
BITMAP
E0380E
E0780C
E0781C
E0F818
E0E838
61DC30
61DC70
719C60
739CE0
731CC0
771DC0
761D80
761D80
741D00
3C0F00
3C0E00
380E00
ENDCHAR

STARTCHAR x
ENCODING 120
SWIDTH 500 0
DWIDTH 17 0
BBX 18 17 -1 0
BITMAP
0E03C0
0E0780
070700
070E00
039C00
03BC00
01F800
01F000
00E000
01E000
03F000
077000
0F3800
1E3C00
3C1C00
781E00
F00E00
ENDCHAR

STARTCHAR y
ENCODING 121
SWIDTH 500 0
DWIDTH 17 0
BBX 19 24 -1 -7
BITMAP
1C00E0
0C01C0
0E01C0
0E0380
0E0700
0E0700
0E0E00
060E00
071C00
071C00
073800
077000
077000
036000
03E000
03C000
03C000
038000
070000
070000
0E0000
7E0000
FC0000
F00000
ENDCHAR

STARTCHAR z
ENCODING 122
SWIDTH 500 0
DWIDTH 17 0
BBX 16 17 0 0
BITMAP
1FFF
1FEF
001E
003C
0038
0078
00F0
01E0
03C0
0780
0F00
1E00
1C00
3C00
7000
FFFC
FFFC
ENDCHAR

STARTCHAR braceleft
ENCODING 123
SWIDTH 334 0
DWIDTH 11 0
BBX 13 31 1 -7
BITMAP
00F8
01F0
03C0
0380
0300
0700
0700
0700
0600
0E00
0E00
0E00
1C00
3800
F000
E000
F000
7800
3800
3800
3800
3800
3800
3000
3000
7000
7000
7000
7800
7E00
3C00
ENDCHAR

STARTCHAR bar
ENCODING 124
SWIDTH 260 0
DWIDTH 9 0
BBX 3 31 4 -7
BITMAP
E0
E0
E0
E0
E0
E0
E0
E0
E0
E0
E0
E0
E0
E0
E0
E0
E0
E0
E0
E0
E0
E0
E0
E0
E0
E0
E0
E0
E0
E0
E0
ENDCHAR

STARTCHAR braceright
ENCODING 125
SWIDTH 334 0
DWIDTH 11 0
BBX 13 31 -3 -7
BITMAP
01E0
03F0
0070
0070
0070
0070
0060
0060
0060
00E0
00E0
00E0
00E0
00F0
0078
0038
0078
00E0
01C0
0380
0380
0380
0300
0700
0700
0700
0600
0E00
1E00
7C00
F800
ENDCHAR

STARTCHAR asciitilde
ENCODING 126
SWIDTH 584 0
DWIDTH 19 0
BBX 17 5 2 9
BITMAP
3F0080
FFC380
FFFF80
C1FF00
807E00
ENDCHAR

STARTCHAR space
ENCODING 160
SWIDTH 278 0
DWIDTH 10 0
BBX 0 0 0 0
BITMAP
ENDCHAR

STARTCHAR afii10023
ENCODING 161
SWIDTH 667 0
DWIDTH 22 0
BBX 22 28 1 0
BITMAP
0078E0
0070E0
0070E0
000000
07FFFC
07FFFC
0FFFF8
0E0000
0E0000
0E0000
0E0000
1C0000
1C0000
1C0000
1FFFE0
3FFFE0
3FFFE0
380000
380000
380000
780000
700000
700000
700000
700000
FFFFC0
FFFFC0
FFFFC0
ENDCHAR

STARTCHAR afii10051
ENCODING 162
SWIDTH 843 0
DWIDTH 28 0
BBX 23 24 4 0
BITMAP
FFFFE0
FFFFE0
FFFFC0
01C000
01C000
01C000
01C000
03C000
038000
039FF0
03FFF8
07F87C
07801C
07000E
07000E
07000E
0F000E
0E000E
0E001E
0E003C
0E1078
1C1FF8
1C3FF0
1C0F80
ENDCHAR

STARTCHAR afii10052
ENCODING 163
SWIDTH 569 0
DWIDTH 19 0
BBX 20 29 1 0
BITMAP
001F80
001C00
007800
000000
000000
07FFF0
0FFFF0
0FFFF0
0E0000
0E0000
0E0000
1E0000
1C0000
1C0000
1C0000
1C0000
3C0000
380000
380000
380000
380000
780000
700000
700000
700000
700000
E00000
E00000
E00000
ENDCHAR

STARTCHAR afii10053
ENCODING 164
SWIDTH 708 0
DWIDTH 23 0
BBX 21 24 2 0
BITMAP
007E00
01FF80
07FFE0
0F80F0
1E0070
3C0078
380038
780020
700000
700000
FFF000
FFF000
FFF000
E00000
E00000
E00040
E000F0
F000E0
7001E0
7803C0
3C0780
3F1F00
0FFE00
07F800
ENDCHAR

STARTCHAR afii10054
ENCODING 165
SWIDTH 667 0
DWIDTH 22 0
BBX 20 24 1 0
BITMAP
00FC00
03FF80
07FFC0
0F01E0
1E00F0
1C0070
1C0070
1C0000
1F0000
0F8000
07E000
01FC00
007E00
001F80
000780
0003C0
E001C0
E001C0
F001C0
7003C0
7C0780
3FFF00
1FFE00
03F000
ENDCHAR

STARTCHAR afii10055
ENCODING 166
SWIDTH 278 0
DWIDTH 9 0
BBX 8 24 1 0
BITMAP
07
07
07
0F
0E
0E
0E
0E
1E
1C
1C
1C
1C
3C
38
38
38
38
78
70
70
70
70
E0
ENDCHAR

STARTCHAR afii10056
ENCODING 167
SWIDTH 278 0
DWIDTH 9 0
BBX 13 28 1 0
BITMAP
1C78
3C70
3870
0000
0700
0700
0700
0F00
0E00
0E00
0E00
0E00
1E00
1C00
1C00
1C00
1C00
3C00
3800
3800
3800
3800
7800
7000
7000
7000
7000
E000
ENDCHAR

STARTCHAR afii10057
ENCODING 168
SWIDTH 500 0
DWIDTH 17 0
BBX 17 24 0 0
BITMAP
000780
000700
000700
000700
000700
000F00
000E00
000E00
000E00
001E00
001C00
001C00
001C00
001C00
003C00
003800
203800
E03800
E03800
E07000
F0F000
7FE000
3FC000
0F0000
ENDCHAR

STARTCHAR afii10058
ENCODING 169
SWIDTH 1084 0
DWIDTH 36 0
BBX 35 24 -1 0
BITMAP
00FFFF0000
00FFFF0000
00FFFE0000
00E00E0000
01E00E0000
01C00E0000
01C01E0000
01C01C0000
01C01C0000
03C01C0000
03801FFE00
03803FFF80
03803FFFC0
03803801E0
07803800E0
07007800E0
07007800E0
07007000E0
0F007001E0
0E007003C0
1E00F00780
FC00FFFF00
FC00FFFE00
F000FFF800
ENDCHAR

STARTCHAR afii10059
ENCODING 170
SWIDTH 983 0
DWIDTH 32 0
BBX 30 24 1 0
BITMAP
0700E000
0701E000
0E01C000
0E01C000
0E01C000
0E01C000
1E03C000
1C038000
1C038000
1C038000
1FFFFFC0
3FFFFFF0
3FFFFFF8
3807003C
3807001C
3807001C
780F001C
700E001C
700E003C
700E0078
700E00F0
F01FFFF0
E01FFFC0
E01FFF00
ENDCHAR

STARTCHAR afii10060
ENCODING 171
SWIDTH 850 0
DWIDTH 28 0
BBX 23 24 3 0
BITMAP
7FFFE0
FFFFE0
FFFFE0
00E000
01E000
01C000
01C000
01C000
01C7E0
03BFF8
03FFFC
03E01E
03800E
07800E
07000E
07000E
07000E
07001E
0E001C
0E001C
0E001C
0E001C
0E003C
1C0038
ENDCHAR

STARTCHAR afii10061
ENCODING 172
SWIDTH 589 0
DWIDTH 19 0
BBX 21 28 1 0
BITMAP
001F80
001C00
007800
000000
070078
0701F0
0F03F0
0E0380
0E0700
0E0F00
0E0E00
1E1C00
1C3C00
1C7800
1DF000
3FE000
3FE000
38F000
387800
383800
783C00
703C00
701C00
701E00
700E00
F00F00
E00F00
E00780
ENDCHAR

STARTCHAR hyphen
ENCODING 173
SWIDTH 333 0
DWIDTH 11 0
BBX 9 3 1 7
BITMAP
FF80
FF80
FF80
ENDCHAR

STARTCHAR afii10062
ENCODING 174
SWIDTH 639 0
DWIDTH 21 0
BBX 21 29 3 0
BITMAP
030380
038700
01FE00
00FC00
000000
E00038
700070
7000F0
7800E0
3801E0
3801C0
1C0380
1C0780
1C0700
0E0E00
0E0E00
0F1C00
073800
073800
07B000
03F000
03E000
01C000
03C000
038000
070000
7F0000
FE0000
780000
ENDCHAR

STARTCHAR afii10145
ENCODING 175
SWIDTH 728 0
DWIDTH 24 0
BBX 24 30 1 -6
BITMAP
07000F
07000E
0F000E
0E000E
0E001E
0E001C
0E001C
1E001C
1C001C
1C003C
1C0038
1C0038
380038
380038
380078
380070
780070
700070
7000F0
7000E0
7000E0
FFFFE0
FFFFE0
FFFFE0
00C000
01C000
01C000
01C000
01C000
038000
ENDCHAR

STARTCHAR afii10017
ENCODING 176
SWIDTH 667 0
DWIDTH 22 0
BBX 21 24 -1 0
BITMAP
000780
000F80
000F80
001D80
001DC0
0039C0
0039C0
0071C0
00F1C0
00E1C0
01E0E0
01C0E0
03C0E0
0380E0
0700E0
0FFFE0
0FFFF0
1E0070
1C0070
3C0070
380070
780070
F00078
E00038
ENDCHAR

STARTCHAR afii10018
ENCODING 177
SWIDTH 651 0
DWIDTH 21 0
BBX 20 24 1 0
BITMAP
07FFF0
07FFF0
0FFFF0
0E0000
0E0000
0E0000
0E0000
1C0000
1C0000
1C0000
1FFE00
3FFF80
3FFFC0
3801E0
3800E0
3800E0
7800E0
7000E0
7001E0
7003C0
700780
FFFF80
FFFE00
FFF800
ENDCHAR

STARTCHAR afii10019
ENCODING 178
SWIDTH 667 0
DWIDTH 22 0
BBX 20 24 1 0
BITMAP
07FF00
0FFFC0
0FFFE0
0E00F0
0E0070
0E0070
1E0070
1C0070
1C00E0
1C01E0
1FFF80
3FFF00
3FFFC0
3803E0
3800E0
7000E0
7000E0
7000E0
7001E0
7001C0
E007C0
FFFF80
FFFE00
FFF800
ENDCHAR

STARTCHAR afii10020
ENCODING 179
SWIDTH 569 0
DWIDTH 19 0
BBX 20 24 1 0
BITMAP
07FFF0
07FFF0
0FFFF0
0E0000
0E0000
0E0000
1E0000
1C0000
1C0000
1C0000
1C0000
3C0000
380000
380000
380000
380000
780000
700000
700000
700000
700000
E00000
E00000
E00000
ENDCHAR

STARTCHAR afii10021
ENCODING 180
SWIDTH 704 0
DWIDTH 23 0
BBX 27 29 -3 -5
BITMAP
001FFFE0
001FFFC0
001FFFC0
003C01C0
003801C0
003803C0
00380380
00380380
00700380
00700780
00700700
00700700
00E00700
00E00700
00E00F00
01C00E00
01C00E00
03800E00
03800E00
07001E00
0E001C00
3FFFFF00
3FFFFF00
7FFFFF00
70000700
70000600
70000E00
60000E00
E0000E00
ENDCHAR

STARTCHAR afii10022
ENCODING 181
SWIDTH 667 0
DWIDTH 22 0
BBX 22 24 1 0
BITMAP
07FFFC
07FFFC
0FFFF8
0E0000
0E0000
0E0000
1E0000
1C0000
1C0000
1C0000
1FFFE0
3FFFE0
3FFFE0
380000
380000
380000
780000
700000
700000
700000
700000
FFFFC0
FFFFC0
FFFFC0
ENDCHAR

STARTCHAR afii10024
ENCODING 182
SWIDTH 917 0
DWIDTH 30 0
BBX 35 24 -2 0
BITMAP
03C01C01E0
03E03C07C0
03E0380FC0
00F0381E00
0070381C00
0070383800
0070783800
0030707000
003870F000
003871E000
003E77C000
000FFE0000
001FFF8000
007CE3C000
00F0E1C000
01E0E1E000
03C1C0E000
0381C0F000
0701C07000
0F01C07800
1E03C03800
3C03803800
7803803C00
F003801C00
ENDCHAR

STARTCHAR afii10025
ENCODING 183
SWIDTH 611 0
DWIDTH 20 0
BBX 18 24 1 0
BITMAP
00FC00
03FF00
07FF80
0F0380
1E01C0
1C01C0
3C01C0
0001C0
0003C0
000F80
01FF00
01F800
03FE00
000F00
000700
000380
600380
E00380
E00780
700700
781F00
3FFE00
1FFC00
03E000
ENDCHAR

STARTCHAR afii10026
ENCODING 184
SWIDTH 719 0
DWIDTH 24 0
BBX 23 24 1 0
BITMAP
07000E
07001E
0E003E
0E007E
0E00FC
0E00FC
0E01DC
1C03DC
1C07B8
1C0F38
1C1E38
1C3C38
387838
38F070
39E070
39C070
73C070
778070
7F00E0
7E00E0
7C00E0
F800E0
F001C0
E001C0
ENDCHAR

STARTCHAR afii10027
ENCODING 185
SWIDTH 719 0
DWIDTH 24 0
BBX 23 29 1 0
BITMAP
003038
003870
001FE0
000FC0
000000
07000E
07001E
0E003E
0E007E
0E00FC
0E00FC
0E01DC
1C03DC
1C07B8
1C0F38
1C1E38
1C3C38
387838
38F070
39E070
39C070
73C070
778070
7F00E0
7E00E0
7C00E0
F800E0
F001C0
E001C0
ENDCHAR

STARTCHAR afii10028
ENCODING 186
SWIDTH 589 0
DWIDTH 19 0
BBX 21 24 1 0
BITMAP
070078
0701F0
0F03F0
0E0380
0E0700
0E0F00
0E0E00
1E1C00
1C3C00
1C7800
1DF000
3FE000
3FE000
38F000
387800
383800
783C00
703C00
701C00
701E00
700E00
F00F00
E00F00
E00780
ENDCHAR

STARTCHAR afii10029
ENCODING 187
SWIDTH 690 0
DWIDTH 23 0
BBX 24 24 -1 0
BITMAP
007FFF
00FFFF
00FFF7
00E00F
00E00E
00E00E
01E00E
01C00E
01C01C
01C01C
01C01C
03801C
03803C
038038
038038
078038
070038
070078
070070
0F0070
0E0070
FE00F0
FC00E0
F000E0
ENDCHAR

STARTCHAR afii10030
ENCODING 188
SWIDTH 833 0
DWIDTH 27 0
BBX 27 24 1 0
BITMAP
078001E0
0F8003E0
0F8003E0
0F800740
0E8006C0
0E800EC0
1DC00DC0
1DC01DC0
1DC03B80
1DC03B80
1DC07380
38C07380
38E0E780
38E0E700
38E1C700
78E38700
70E38700
70670F00
70670E00
70760E00
F0760E00
E07C0E00
E0781C00
E0381C00
ENDCHAR

STARTCHAR afii10031
ENCODING 189
SWIDTH 722 0
DWIDTH 24 0
BBX 23 24 1 0
BITMAP
07000E
07000E
0E000E
0E001E
0E001C
0E001C
1E001C
1C001C
1C003C
1C0038
1FFFF8
3FFFF8
3FFFB8
380078
380070
380070
780070
700070
7000F0
7000E0
7000E0
F000E0
E000E0
E001E0
ENDCHAR

STARTCHAR afii10032
ENCODING 190
SWIDTH 778 0
DWIDTH 26 0
BBX 22 24 3 0
BITMAP
007E00
01FFC0
07FFE0
0F81F0
1E0078
3C0038
38003C
78001C
70001C
F0001C
E0001C
E0001C
E0001C
E0001C
E0003C
E00038
F00078
700070
7800F0
3801E0
3E07C0
1FFF80
07FE00
01F000
ENDCHAR

STARTCHAR afii10033
ENCODING 191
SWIDTH 722 0
DWIDTH 24 0
BBX 23 24 1 0
BITMAP
07FFFE
07FFFE
0FFFFE
0E000E
0E001C
0E001C
1E001C
1E001C
1C001C
1C0038
1C0038
3C0038
380038
380078
380070
380070
780070
700070
7000F0
7000E0
7000E0
F000E0
E000E0
E001E0
ENDCHAR

STARTCHAR afii10034
ENCODING 192
SWIDTH 667 0
DWIDTH 22 0
BBX 22 24 0 0
BITMAP
07FFC0
07FFF0
07FFF8
07003C
0F001C
0E001C
0E001C
0E001C
0E003C
1E0078
1C00F0
1FFFF0
1FFFC0
1FFE00
3C0000
380000
380000
380000
380000
780000
700000
700000
700000
F00000
ENDCHAR

STARTCHAR afii10035
ENCODING 193
SWIDTH 722 0
DWIDTH 24 0
BBX 21 24 3 0
BITMAP
007E00
01FF80
07FFE0
0F81F0
1E0070
3C0078
380038
780030
700000
700000
F00000
E00000
E00000
E00000
E00000
E00040
E000F0
F000E0
7001E0
7803C0
3E0780
1FFF00
0FFC00
01F000
ENDCHAR

STARTCHAR afii10036
ENCODING 194
SWIDTH 611 0
DWIDTH 20 0
BBX 20 24 3 0
BITMAP
7FFFF0
7FFFE0
FFFFE0
00E000
00E000
00E000
01E000
01C000
01C000
01C000
01C000
038000
038000
038000
038000
078000
070000
070000
070000
070000
0F0000
0E0000
0E0000
0E0000
ENDCHAR

STARTCHAR afii10037
ENCODING 195
SWIDTH 639 0
DWIDTH 21 0
BBX 21 24 3 0
BITMAP
E00038
700070
7000F0
7800E0
3801E0
3801C0
1C0380
1C0780
1C0700
0E0E00
0E0E00
0F1C00
073800
073800
07B000
03F000
03E000
01C000
03C000
038000
070000
7F0000
FE0000
780000
ENDCHAR

STARTCHAR afii10038
ENCODING 196
SWIDTH 795 0
DWIDTH 26 0
BBX 23 24 2 0
BITMAP
000E00
000E00
007F80
03FFE0
0FFFF8
1F9C7C
3E1C1C
381C0E
781C0E
70380E
F0380E
E0380E
E0381E
E0381E
E0701C
E0703C
F07078
7870F0
3FEFE0
1FFFC0
07FF00
00E000
00E000
01C000
ENDCHAR

STARTCHAR afii10039
ENCODING 197
SWIDTH 667 0
DWIDTH 22 0
BBX 27 24 -2 0
BITMAP
078003E0
038007C0
03C00F80
01C00F00
01E01E00
00F03C00
00707800
0078F000
0039E000
003DC000
001F8000
000E0000
001F0000
003F0000
007B8000
00F38000
01E3C000
03E1C000
07C0E000
0F80E000
0F007000
1E007800
3C003800
F8003C00
ENDCHAR

STARTCHAR afii10040
ENCODING 198
SWIDTH 727 0
DWIDTH 24 0
BBX 24 29 1 -5
BITMAP
07000F
07000E
0F000E
0E000E
0E001E
0E001C
0E001C
1E001C
1C001C
1C003C
1C0038
1C0038
380038
380038
380070
380070
780070
700070
7000F0
7000E0
7000E0
FFFFF8
FFFFF8
FFFFF8
000038
000030
000070
000070
000070
ENDCHAR

STARTCHAR afii10041
ENCODING 199
SWIDTH 685 0
DWIDTH 23 0
BBX 20 24 3 0
BITMAP
380070
3800F0
7800E0
7000E0
7000E0
7000E0
7001C0
E001C0
E001C0
E001C0
E003C0
F00380
F80F80
7FFF80
3FFB80
0FC780
000700
000700
000700
000700
000E00
000E00
000E00
000E00
ENDCHAR

STARTCHAR afii10042
ENCODING 200
SWIDTH 924 0
DWIDTH 30 0
BBX 30 24 1 0
BITMAP
0700E01C
0700E01C
0F01E03C
0E01C038
0E01C038
0E01C038
0E01C038
1E03C070
1C038070
1C038070
1C038070
1C0380F0
380700E0
380700E0
380700E0
380700E0
780F01E0
700E01C0
700E01C0
700E01C0
700E01C0
FFFFFFC0
FFFFFF80
FFFFFF80
ENDCHAR

STARTCHAR afii10043
ENCODING 201
SWIDTH 924 0
DWIDTH 30 0
BBX 30 29 1 -5
BITMAP
0700E01C
0700E01C
0F01E03C
0E01C038
0E01C038
0E01C038
0E01C038
1E03C070
1C038070
1C038070
1C038070
1C0380F0
380700E0
380700E0
380700E0
380700E0
780F01E0
700E01C0
700E01C0
700E01C0
700E01C0
FFFFFFF0
FFFFFFE0
FFFFFFE0
000000E0
000000E0
000000E0
000000C0
000001C0
ENDCHAR

STARTCHAR afii10044
ENCODING 202
SWIDTH 805 0
DWIDTH 27 0
BBX 22 24 3 0
BITMAP
FFE000
FFE000
FFC000
01C000
01C000
01C000
03C000
038000
038000
038000
03FFC0
07FFF0
07FFF8
07003C
07001C
07001C
0E001C
0E001C
0E003C
0E0078
0E00F0
1FFFF0
1FFFC0
1FFF00
ENDCHAR

STARTCHAR afii10045
ENCODING 203
SWIDTH 886 0
DWIDTH 29 0
BBX 29 24 1 0
BITMAP
07000038
07000078
0E000070
0E000070
0E000070
0E000070
0E0000E0
1C0000E0
1C0000E0
1C0000E0
1FFE01E0
3FFF81C0
3FFFC1C0
3801E1C0
3800E1C0
3800E3C0
7800E380
7000E380
7001E380
7003C380
70078780
FFFF8700
FFFE0700
FFF80700
ENDCHAR

STARTCHAR afii10046
ENCODING 204
SWIDTH 651 0
DWIDTH 21 0
BBX 19 24 1 0
BITMAP
070000
070000
0E0000
0E0000
0E0000
0E0000
0E0000
1C0000
1C0000
1C0000
1FFE00
3FFF80
3FFFC0
3801E0
3800E0
3800E0
7800E0
7000E0
7001E0
7003C0
700780
FFFF80
FFFE00
FFF800
ENDCHAR

STARTCHAR afii10047
ENCODING 205
SWIDTH 694 0
DWIDTH 23 0
BBX 21 24 1 0
BITMAP
007E00
03FF80
07FFC0
0F01E0
1E00F0
3C0070
380078
000038
000038
000038
007FF8
007FF8
007FF8
000038
000078
200070
E000F0
E000E0
F001E0
7003C0
780780
3E3F00
1FFE00
07F800
ENDCHAR

STARTCHAR afii10048
ENCODING 206
SWIDTH 1023 0
DWIDTH 34 0
BBX 32 24 1 0
BITMAP
07001F80
0F00FFF0
0E01FFF8
0E03E07C
0E07C01E
0E0F800E
1E0F000E
1C1E0007
1C1E0007
1C1C0007
3C3C0007
3FFC0007
3FF80007
3FF80007
3838000F
7838000E
7038001E
703C001C
701C003C
701E0078
F00F81F0
E007FFE0
E001FF80
E0007E00
ENDCHAR

STARTCHAR afii10049
ENCODING 207
SWIDTH 688 0
DWIDTH 23 0
BBX 25 24 -2 0
BITMAP
001FFF80
00FFFF80
01FFFF00
03C00700
03800700
07800700
07000E00
07000E00
07000E00
07800E00
03E01E00
01FFFC00
00DFFC00
003C1C00
00F81C00
01F03C00
03E03800
03C03800
07803800
0F003800
1E007000
3C007000
7C007000
F8007000
ENDCHAR

STARTCHAR afii10065
ENCODING 208
SWIDTH 556 0
DWIDTH 18 0
BBX 16 17 1 0
BITMAP
03F8
0FFE
1E0F
3C07
3807
0007
000F
1FFE
3FF6
780E
F00E
E01E
E01C
E03C
70FC
7FDC
1F1C
ENDCHAR

STARTCHAR afii10066
ENCODING 209
SWIDTH 553 0
DWIDTH 18 0
BBX 18 24 1 0
BITMAP
00FFC0
03FF80
07FF80
0E1C00
1C0000
1C0000
380000
3BF800
37FC00
7E1E00
7C0E00
780700
700700
F00700
E00700
E00700
E00700
E00E00
E00E00
E01E00
703C00
7CF800
3FF000
0FC000
ENDCHAR

STARTCHAR afii10067
ENCODING 210
SWIDTH 522 0
DWIDTH 17 0
BBX 15 17 1 0
BITMAP
03F8
0FFC
1E1E
3C0E
380E
701E
703C
FFE0
FFF0
E078
E01C
E01C
E01C
703C
7878
3FF0
0FE0
ENDCHAR

STARTCHAR afii10068
ENCODING 211
SWIDTH 493 0
DWIDTH 16 0
BBX 15 17 0 0
BITMAP
07F0
0FFC
1E1E
380E
000E
001E
003C
03F8
1FE0
7E00
7000
E000
E01E
E01C
7878
7FF0
1FE0
ENDCHAR

STARTCHAR afii10069
ENCODING 212
SWIDTH 552 0
DWIDTH 18 0
BBX 16 24 1 0
BITMAP
03F0
03FC
003E
000E
0007
0007
0007
03F3
0FFB
1E1D
3C0F
3807
7007
7007
E007
E006
E006
E00E
E00E
E01C
7038
7878
3FF0
0FC0
ENDCHAR

STARTCHAR afii10070
ENCODING 213
SWIDTH 556 0
DWIDTH 18 0
BBX 16 17 1 0
BITMAP
03F0
0FFC
1E1E
3C0E
7807
7007
7007
FFFF
FFFF
E000
E000
E00E
E01C
703C
78F8
3FF0
0FC0
ENDCHAR

STARTCHAR afii10072
ENCODING 214
SWIDTH 688 0
DWIDTH 23 0
BBX 25 17 -1 0
BITMAP
0E070780
1F060F00
070E1C00
030E3800
038E7000
038C7000
01DCE000
00FF8000
01FFC000
079DE000
0F38E000
0E387000
1C387000
3C387000
78303800
70703800
E0701C00
ENDCHAR

STARTCHAR afii10073
ENCODING 215
SWIDTH 465 0
DWIDTH 15 0
BBX 14 17 0 0
BITMAP
07F0
0FF8
1C3C
381C
081C
001C
0038
03F0
07E0
00F0
0038
0038
E038
E038
70F0
7FE0
1F80
ENDCHAR

STARTCHAR afii10074
ENCODING 216
SWIDTH 556 0
DWIDTH 18 0
BBX 16 17 1 0
BITMAP
1C07
3807
3807
3807
3806
700E
700E
700E
700E
701C
E01C
E01C
E03C
E07C
F1D8
7FB8
3E38
ENDCHAR

STARTCHAR afii10075
ENCODING 217
SWIDTH 556 0
DWIDTH 18 0
BBX 16 24 1 0
BITMAP
0603
0706
03FE
01F8
0000
0000
0000
1C07
3807
3807
3807
3806
700E
700E
700E
700E
701C
E01C
E01C
E03C
E07C
F1D8
7FB8
3E38
ENDCHAR

STARTCHAR afii10076
ENCODING 218
SWIDTH 472 0
DWIDTH 16 0
BBX 17 17 0 0
BITMAP
0E0780
0E1F00
0C1C00
1C3800
1C7000
1C7000
18E000
3F8000
3FC000
39E000
38E000
307000
707000
707000
703800
703800
E03C00
ENDCHAR

STARTCHAR afii10077
ENCODING 219
SWIDTH 565 0
DWIDTH 19 0
BBX 19 17 -1 0
BITMAP
03FFE0
03FFE0
0380E0
0300C0
0701C0
0701C0
0701C0
0701C0
0E0380
0E0380
0E0380
0E0380
1C0300
1C0700
FC0700
F80700
F00700
ENDCHAR

STARTCHAR afii10078
ENCODING 220
SWIDTH 687 0
DWIDTH 23 0
BBX 22 17 0 0
BITMAP
0F803C
0F807C
0D807C
1D80EC
1D81D8
1D81B8
1983B8
398338
39C730
39CE70
39CC70
31DC70
70D870
70F860
70F0E0
60E0E0
E0E0E0
ENDCHAR

STARTCHAR afii10079
ENCODING 221
SWIDTH 550 0
DWIDTH 18 0
BBX 18 17 0 0
BITMAP
0E01C0
0E01C0
0C0380
1C0380
1C0380
1C0380
180700
3FFF00
3FFF00
380700
380700
380E00
700E00
700E00
700E00
700C00
E01C00
ENDCHAR

STARTCHAR afii10080
ENCODING 222
SWIDTH 556 0
DWIDTH 18 0
BBX 16 17 1 0
BITMAP
03F8
0FFC
1E1E
3C0E
7807
7007
7007
E007
E007
E007
E00E
E00E
E01E
703C
7878
3FF0
0FC0
ENDCHAR

STARTCHAR afii10081
ENCODING 223
SWIDTH 550 0
DWIDTH 18 0
BBX 18 17 0 0
BITMAP
0FFFC0
0FFF80
1C0380
1C0380
1C0380
1C0380
1C0700
380700
380700
380700
380600
300E00
700E00
700E00
700E00
700C00
E01C00
ENDCHAR

STARTCHAR afii10082
ENCODING 224
SWIDTH 556 0
DWIDTH 18 0
BBX 18 23 -1 -6
BITMAP
073E00
06FF00
0EC780
0F0380
0F01C0
0E01C0
0E01C0
1C01C0
1C01C0
1C01C0
1C0380
3C0380
3C0700
3E0F00
3B1E00
33FC00
71F000
700000
700000
700000
600000
E00000
E00000
ENDCHAR

STARTCHAR afii10083
ENCODING 225
SWIDTH 500 0
DWIDTH 17 0
BBX 15 17 1 0
BITMAP
07F0
0FFC
1E1C
380E
780E
7000
7000
E000
E000
E000
E000
E01C
E038
7078
78F0
3FE0
1F80
ENDCHAR

STARTCHAR afii10084
ENCODING 226
SWIDTH 833 0
DWIDTH 27 0
BBX 26 17 0 0
BITMAP
0E7C1F80
0CFE7FC0
1F8F63C0
1F07C1C0
1E0781C0
1C0701C0
3C0F0180
380E0380
380E0380
380E0380
380E0380
701C0300
701C0700
701C0700
701C0700
60180700
E0380E00
ENDCHAR

STARTCHAR afii10085
ENCODING 227
SWIDTH 500 0
DWIDTH 17 0
BBX 19 24 -1 -7
BITMAP
1C00E0
0C01C0
0E01C0
0E0380
0E0700
0E0700
0E0E00
060E00
071C00
071C00
073800
077000
077000
036000
03E000
03C000
03C000
038000
070000
070000
0E0000
7E0000
FC0000
F00000
ENDCHAR

STARTCHAR afii10086
ENCODING 228
SWIDTH 836 0
DWIDTH 28 0
BBX 26 30 1 -6
BITMAP
0001C000
00038000
00038000
00038000
00038000
00038000
00070000
07E73E00
0FF7FF00
1E3FC780
3C1F83C0
380F01C0
700E01C0
700E01C0
E00E01C0
E00C01C0
E01C01C0
E01C0380
E01C0380
E03C0700
707E0F00
78FB1E00
3FBBFC00
1F39F000
00700000
00700000
00700000
00700000
00700000
00E00000
ENDCHAR

STARTCHAR afii10087
ENCODING 229
SWIDTH 500 0
DWIDTH 17 0
BBX 18 17 -1 0
BITMAP
0E03C0
0E0780
070700
070E00
039C00
03BC00
01F800
01F000
00E000
01E000
03F000
077000
0F3800
1E3C00
3C1C00
781E00
F00E00
ENDCHAR

STARTCHAR afii10088
ENCODING 230
SWIDTH 572 0
DWIDTH 19 0
BBX 16 22 2 -5
BITMAP
1807
3807
380E
380E
380E
300E
700C
701C
701C
601C
E01C
E038
E038
E078
F1D8
7FBF
3E1F
0006
0006
000E
000E
000C
ENDCHAR

STARTCHAR afii10089
ENCODING 231
SWIDTH 545 0
DWIDTH 18 0
BBX 15 17 3 0
BITMAP
700E
700E
701C
601C
E01C
E01C
E018
E038
F078
7FF8
3FD8
0070
0070
0070
0070
0060
00E0
ENDCHAR

STARTCHAR afii10090
ENCODING 232
SWIDTH 831 0
DWIDTH 27 0
BBX 26 17 1 0
BITMAP
1C0701C0
18060380
380E0380
380E0380
380E0380
380E0380
701C0700
701C0700
701C0700
701C0700
E0380E00
E0380E00
E0781E00
E0F83E00
F3DCEC00
7F1FDC00
3E0F9C00
ENDCHAR

STARTCHAR afii10091
ENCODING 233
SWIDTH 851 0
DWIDTH 28 0
BBX 26 22 1 -5
BITMAP
1C0701C0
180701C0
380E0180
380E0380
380E0380
380E0380
701C0380
701C0700
701C0700
701C0700
E01C0700
E0380E00
E0781E00
E0F83E00
F1DCF600
7F9FEFC0
3E0F87C0
00000180
00000180
00000380
00000380
00000300
ENDCHAR

STARTCHAR afii10092
ENCODING 234
SWIDTH 621 0
DWIDTH 20 0
BBX 17 17 2 0
BITMAP
FF0000
FF0000
070000
070000
0E0000
0E0000
0E0000
0FFE00
0FFF00
1C0780
1C0380
1C0380
1C0380
180780
380F00
3FFE00
3FFC00
ENDCHAR

STARTCHAR afii10093
ENCODING 235
SWIDTH 736 0
DWIDTH 24 0
BBX 23 17 1 0
BITMAP
1C000E
1C000E
1C000E
1C000C
38001C
38001C
38001C
3FF81C
3FFC38
701E38
700E38
700E38
700E38
601E70
E03C70
FFF870
FFF070
ENDCHAR

STARTCHAR afii10094
ENCODING 236
SWIDTH 526 0
DWIDTH 17 0
BBX 15 17 1 0
BITMAP
1C00
1C00
1C00
1C00
3800
3800
3800
3FF8
3FFC
701E
700E
700E
700E
601E
E03C
FFF8
FFF0
ENDCHAR

STARTCHAR afii10095
ENCODING 237
SWIDTH 495 0
DWIDTH 16 0
BBX 15 17 0 0
BITMAP
07F0
0FF8
1E3C
381E
780E
000E
000E
01FE
03FE
000E
001C
001C
E03C
F078
78F0
7FE0
1F80
ENDCHAR

STARTCHAR afii10096
ENCODING 238
SWIDTH 755 0
DWIDTH 25 0
BBX 23 17 1 0
BITMAP
0E07F0
1C0FF8
1C1E3C
1C380E
1C780E
18700E
38F00E
3FE00E
3FE00E
38E00E
70E01C
70E01C
70E038
707078
6078F0
E03FE0
E01F80
ENDCHAR

STARTCHAR afii10097
ENCODING 239
SWIDTH 538 0
DWIDTH 18 0
BBX 18 17 -1 0
BITMAP
03FFC0
07FFC0
0F01C0
1E0180
1C0380
1C0380
1C0380
0F0380
0FFF00
01FF00
078700
0F0700
1E0600
3C0E00
380E00
700E00
F00E00
ENDCHAR

STARTCHAR afii61352
ENCODING 240
SWIDTH 1083 0
DWIDTH 36 0
BBX 34 24 1 0
BITMAP
07001C0000
07801C0000
0F801C0000
0F801C0000
0FC01C0000
0EC0383E00
1EC0387F80
1CE038E380
1CE039C1C0
1C7071C1C0
1C707381C0
38707381C0
38387381C0
3838738380
381CE38380
381CE1C700
700CE1FE00
700EE07C00
700EE00000
7007C00000
F007C7FF00
E003CFFE00
E003C00000
E003800000
ENDCHAR

STARTCHAR afii10071
ENCODING 241
SWIDTH 556 0
DWIDTH 18 0
BBX 16 23 1 0
BITMAP
038E
038E
039E
0000
0000
0000
03F8
0FFC
1E1E
3C0E
7807
7007
7007
FFFF
FFFF
E000
E000
E00E
E01C
703C
78F8
3FF0
0FC0
ENDCHAR

STARTCHAR afii10099
ENCODING 242
SWIDTH 556 0
DWIDTH 18 0
BBX 16 31 1 -7
BITMAP
0E00
0E00
3FF8
3FF8
0E00
1C00
1C00
1CFC
1DFE
1D8F
3E07
3C07
3807
3807
380E
700E
700E
700E
700C
E01C
E01C
E01C
E01C
E038
0038
0038
0038
0070
03F0
07E0
03C0
ENDCHAR

STARTCHAR afii10100
ENCODING 243
SWIDTH 386 0
DWIDTH 13 0
BBX 14 24 0 0
BITMAP
0078
00F0
00E0
03C0
0000
0000
0000
0FFC
0FFC
0C00
1C00
1C00
1C00
1C00
3800
3800
3800
3800
3000
7000
7000
7000
7000
E000
ENDCHAR

STARTCHAR afii10101
ENCODING 244
SWIDTH 495 0
DWIDTH 16 0
BBX 15 17 1 0
BITMAP
07F0
0FFC
1E1C
380E
780E
7000
6000
FF80
FF00
E000
E000
E01C
E038
7078
78F0
3FE0
1F80
ENDCHAR

STARTCHAR afii10102
ENCODING 245
SWIDTH 500 0
DWIDTH 17 0
BBX 15 17 0 0
BITMAP
07F0
0FFC
1C1E
380E
380E
3C00
1F00
0FC0
07F0
00F8
003C
E01C
E01C
F01C
7878
3FF0
1FE0
ENDCHAR

STARTCHAR afii10103
ENCODING 246
SWIDTH 222 0
DWIDTH 7 0
BBX 8 24 0 0
BITMAP
07
07
07
00
00
00
00
0E
0E
1C
1C
1C
1C
1C
38
38
38
38
30
70
70
70
70
E0
ENDCHAR

STARTCHAR afii10104
ENCODING 247
SWIDTH 278 0
DWIDTH 9 0
BBX 11 23 1 0
BITMAP
38E0
79C0
71C0
0000
0000
0000
0E00
0E00
1C00
1C00
1C00
1C00
1C00
3800
3800
3800
3800
7000
7000
7000
7000
7000
E000
ENDCHAR

STARTCHAR afii10105
ENCODING 248
SWIDTH 222 0
DWIDTH 7 0
BBX 12 31 -4 -7
BITMAP
0070
0070
0070
0000
0000
0000
0000
00E0
00E0
01C0
01C0
01C0
01C0
01C0
0380
0380
0380
0380
0380
0700
0700
0700
0700
0600
0E00
0E00
0E00
1C00
FC00
F800
F000
ENDCHAR

STARTCHAR afii10106
ENCODING 249
SWIDTH 910 0
DWIDTH 30 0
BBX 30 17 -2 0
BITMAP
01FFF800
01FFF800
01C03800
01C03800
01C07000
03807000
03807000
03807FF0
03807FF8
0700E03C
0700E01C
0700E01C
0700E01C
0E00C038
7E01C078
FC01FFF0
7801FFE0
ENDCHAR

STARTCHAR afii10107
ENCODING 250
SWIDTH 828 0
DWIDTH 27 0
BBX 25 17 1 0
BITMAP
1C070000
1C070000
1C070000
1C070000
38060000
380E0000
380E0000
3FFFFE00
3FEFFF00
701C0780
701C0380
701C0380
701C0380
60180780
E0380F00
E03FFE00
E03FFC00
ENDCHAR

STARTCHAR afii10108
ENCODING 251
SWIDTH 556 0
DWIDTH 18 0
BBX 16 24 1 0
BITMAP
0E00
0E00
3FF8
3FF8
0E00
1C00
1C00
1CFC
1DFE
1D8F
3E07
3C07
3807
3807
380E
700E
700E
700E
700C
E01C
E01C
E01C
E01C
E038
ENDCHAR

STARTCHAR afii10109
ENCODING 252
SWIDTH 472 0
DWIDTH 16 0
BBX 17 24 0 0
BITMAP
000F00
001C00
003800
007000
000000
000000
000000
0E0F80
0E1F00
0C1C00
1C3800
1C7000
1C7000
18E000
3F8000
3FC000
39E000
38E000
307000
707000
707000
703800
703800
E03C00
ENDCHAR

STARTCHAR section
ENCODING 253
SWIDTH 556 0
DWIDTH 18 0
BBX 17 31 1 -7
BITMAP
01FC00
03FE00
078F00
060700
0E0380
0E0200
0E0000
070000
078000
0FC000
1DE000
38F800
707C00
701E00
700E00
700700
380700
3C0700
1E0E00
0F9E00
03DC00
01E000
00F000
007000
003800
E03800
E03800
F07800
78F000
3FE000
0F8000
ENDCHAR

STARTCHAR afii10110
ENCODING 254
SWIDTH 500 0
DWIDTH 17 0
BBX 19 30 -1 -7
BITMAP
0181C0
01C380
00FF00
007C00
000000
000000
1C00E0
0C01C0
0E01C0
0E0380
0E0700
0E0700
0E0E00
060E00
071C00
071C00
073800
077000
077000
036000
03E000
03C000
03C000
038000
070000
070000
0E0000
7E0000
FC0000
F00000
ENDCHAR

STARTCHAR afii10193
ENCODING 255
SWIDTH 556 0
DWIDTH 18 0
BBX 16 23 1 -6
BITMAP
1C07
3807
3807
3807
3806
700E
700E
700E
700E
701C
E01C
E01C
E03C
E078
F1D8
7FB8
3E38
1800
1800
1800
3800
3800
3000
ENDCHAR
ENDFONT
